<svg xmlns="http://www.w3.org/2000/svg" xmlns:xlink="http://www.w3.org/1999/xlink" width="1080" zoomAndPan="magnify" viewBox="0 0 810 809.999993" height="1080" preserveAspectRatio="xMidYMid meet" version="1.0"><defs><g/><clipPath id="9180562724"><rect x="0" width="609" y="0" height="277"/></clipPath></defs><g transform="matrix(1, 0, 0, 1, 102, 259)"><g clip-path="url(#9180562724)"><g fill="#000000" fill-opacity="1"><g transform="translate(0.296849, 223.250613)"><g><path d="M 54.078125 2.703125 C 40.921875 2.703125 30.101562 -1.210938 21.625 -9.046875 C 13.15625 -16.890625 8.921875 -27.664062 8.921875 -41.375 L 8.921875 -79.765625 L 42.453125 -79.765625 L 42.453125 -41.375 C 42.453125 -37.039062 43.53125 -33.789062 45.6875 -31.625 C 47.851562 -29.46875 50.648438 -28.390625 54.078125 -28.390625 C 57.679688 -28.390625 60.5625 -29.46875 62.71875 -31.625 C 64.882812 -33.789062 65.96875 -37.039062 65.96875 -41.375 L 65.96875 -62.734375 C 65.96875 -69.035156 64.570312 -74.484375 61.78125 -79.078125 C 58.988281 -83.679688 55.425781 -87.875 51.09375 -91.65625 C 46.769531 -95.4375 42.175781 -99.21875 37.3125 -103 C 32.445312 -106.789062 27.847656 -110.984375 23.515625 -115.578125 C 19.191406 -120.179688 15.675781 -125.726562 12.96875 -132.21875 C 10.269531 -138.707031 8.921875 -146.457031 8.921875 -155.46875 L 8.921875 -174.9375 C 8.921875 -188.632812 13.109375 -199.398438 21.484375 -207.234375 C 29.867188 -215.078125 40.734375 -219 54.078125 -219 C 67.410156 -219 78.269531 -215.078125 86.65625 -207.234375 C 95.039062 -199.398438 99.234375 -188.632812 99.234375 -174.9375 L 99.234375 -143.03125 L 65.96875 -143.03125 L 65.96875 -174.9375 C 65.96875 -179.257812 64.882812 -182.5 62.71875 -184.65625 C 60.5625 -186.820312 57.679688 -187.90625 54.078125 -187.90625 C 50.648438 -187.90625 47.804688 -186.820312 45.546875 -184.65625 C 43.296875 -182.5 42.171875 -179.257812 42.171875 -174.9375 L 42.171875 -155.46875 C 42.171875 -149.519531 43.523438 -144.335938 46.234375 -139.921875 C 48.941406 -135.503906 52.457031 -131.445312 56.78125 -127.75 C 61.101562 -124.050781 65.695312 -120.3125 70.5625 -116.53125 C 75.4375 -112.75 80.035156 -108.46875 84.359375 -103.6875 C 88.679688 -98.914062 92.285156 -93.238281 95.171875 -86.65625 C 98.054688 -80.070312 99.5 -72.097656 99.5 -62.734375 L 99.5 -41.375 C 99.5 -27.664062 95.257812 -16.890625 86.78125 -9.046875 C 78.3125 -1.210938 67.410156 2.703125 54.078125 2.703125 Z M 54.078125 2.703125 "/></g></g></g><g fill="#000000" fill-opacity="1"><g transform="translate(108.447656, 223.250613)"><g><path d="M 9.734375 0 L 9.734375 -216.296875 L 43.265625 -216.296875 L 43.265625 0 Z M 9.734375 0 "/></g></g></g><g fill="#000000" fill-opacity="1"><g transform="translate(161.441555, 223.250613)"><g><path d="M 10 0 L 10 -216.296875 L 55.15625 -216.296875 L 72.1875 -59.75 L 89.765625 -216.296875 L 134.640625 -216.296875 L 134.640625 0 L 103.28125 0 L 103.28125 -91.921875 L 106.53125 -170.609375 L 86.796875 0 L 56.78125 0 L 37.859375 -172.234375 L 41.375 -92.203125 L 41.375 0 Z M 10 0 "/></g></g></g><g fill="#000000" fill-opacity="1"><g transform="translate(305.822883, 223.250613)"><g><path d="M 9.734375 0 L 9.734375 -216.296875 L 43.265625 -216.296875 L 43.265625 0 Z M 9.734375 0 "/></g></g></g><g fill="#000000" fill-opacity="1"><g transform="translate(358.816782, 223.250613)"><g><path d="M 9.734375 0 L 9.734375 -216.296875 L 43.265625 -216.296875 L 43.265625 -31.09375 L 83 -31.09375 L 83 0 Z M 9.734375 0 "/></g></g><g transform="translate(443.715188, 223.250613)"><g><path d="M 9.734375 0 L 9.734375 -216.296875 L 43.265625 -216.296875 L 43.265625 0 Z M 9.734375 0 "/></g></g></g><g fill="#000000" fill-opacity="1"><g transform="translate(496.709088, 223.250613)"><g><path d="M 1.625 0 L 31.90625 -216.296875 L 75.96875 -216.296875 L 107.34375 0 L 74.078125 0 L 69.21875 -43.265625 L 39.75 -43.265625 L 35.15625 0 Z M 42.453125 -72.453125 L 66.234375 -72.453125 L 54.078125 -184.390625 Z M 42.453125 -72.453125 "/></g></g></g></g></g></svg>